<svg width="100" height="22" viewBox="0 0 100 22" fill="none" xmlns="http://www.w3.org/2000/svg">
  <path
    d="M8.71571 9.196C9.31709 9.196 9.78642 9.284 10.1238 9.46C10.4758 9.636 10.7397 9.86333 10.9157 10.142C11.1063 10.4207 11.2237 10.7213 11.2677 11.044C11.3118 11.3667 11.3338 11.682 11.3338 11.99V14.08C11.319 14.3293 11.363 14.5053 11.4657 14.608C11.5683 14.696 11.715 14.74 11.9057 14.74H12.5877V16.5H11.0478C10.5197 16.5 10.087 16.3607 9.74967 16.082C9.427 15.8033 9.26567 15.3047 9.26567 14.586L9.28767 10.978C9.28767 10.6993 9.17766 10.4573 8.95771 10.252C8.73771 10.0467 8.48104 9.95133 8.18771 9.966H2.00571V16.5H0.0257111V1.078C1.22838 1.09267 2.31371 1.1 3.28171 1.1C3.69238 1.1 4.09571 1.1 4.49171 1.1C4.90238 1.1 5.26904 1.1 5.59171 1.1C5.92905 1.1 6.20771 1.1 6.42771 1.1C6.66238 1.1 6.80905 1.09267 6.86771 1.078C6.99971 1.078 7.21971 1.08533 7.52771 1.1C7.83571 1.11467 8.18038 1.166 8.56171 1.254C8.94304 1.32733 9.339 1.452 9.74967 1.628C10.1603 1.78933 10.527 2.024 10.8498 2.332C11.1871 2.64 11.4657 3.036 11.6857 3.52C11.9057 3.98933 12.0083 4.56867 11.9937 5.258C11.979 5.88867 11.8837 6.424 11.7077 6.864C11.5463 7.28933 11.3191 7.634 11.0258 7.898C10.7323 8.162 10.3877 8.35267 9.99166 8.47C9.59566 8.58733 9.17033 8.65333 8.71571 8.668V9.196ZM2.00571 2.772V8.206H7.04371C7.16105 8.19133 7.38104 8.16933 7.70371 8.14C8.02638 8.11067 8.35638 8.01533 8.69371 7.854C9.04571 7.678 9.34633 7.414 9.59567 7.062C9.85967 6.69533 9.98433 6.182 9.96967 5.522C9.955 4.92067 9.83033 4.444 9.59567 4.092C9.37567 3.72533 9.11171 3.44667 8.80371 3.256C8.49571 3.06533 8.18038 2.94067 7.85771 2.882C7.54971 2.82333 7.29305 2.78667 7.08771 2.772H2.00571ZM15.664 10.01H21.868C21.8533 9.42333 21.736 8.90267 21.516 8.448C21.428 8.24267 21.3033 8.052 21.142 7.876C20.9953 7.68533 20.812 7.51667 20.592 7.37C20.372 7.22333 20.108 7.106 19.8 7.018C19.5067 6.93 19.162 6.886 18.766 6.886C18.0327 6.886 17.4607 7.04733 17.05 7.37C16.6393 7.69267 16.3313 8.052 16.126 8.448C15.8767 8.90267 15.7227 9.42333 15.664 10.01ZM18.92 5.236C19.844 5.236 20.6067 5.37533 21.208 5.654C21.824 5.93267 22.3153 6.28467 22.682 6.71C23.0487 7.13533 23.32 7.60467 23.496 8.118C23.672 8.61667 23.7893 9.09334 23.848 9.548C23.9067 10.0027 23.9287 10.3987 23.914 10.736C23.8993 11.0733 23.8847 11.2787 23.87 11.352H15.62C15.6347 11.9093 15.708 12.43 15.84 12.914C15.9867 13.3833 16.1847 13.794 16.434 14.146C16.698 14.498 17.0207 14.7767 17.402 14.982C17.798 15.1727 18.2527 15.268 18.766 15.268C19.4407 15.268 19.9833 15.136 20.394 14.872C20.8193 14.5933 21.1493 14.3 21.384 13.992C21.6627 13.6107 21.8607 13.1853 21.978 12.716H23.76C23.628 13.4787 23.364 14.1533 22.968 14.74C22.8067 15.004 22.6013 15.2607 22.352 15.51C22.1027 15.7447 21.8093 15.9573 21.472 16.148C21.1347 16.3387 20.7387 16.4927 20.284 16.61C19.844 16.7273 19.338 16.786 18.766 16.786C18.0913 16.786 17.4973 16.698 16.984 16.522C16.4853 16.346 16.0527 16.1187 15.686 15.84C15.3193 15.5613 15.0113 15.246 14.762 14.894C14.5127 14.542 14.3147 14.1827 14.168 13.816C13.816 12.936 13.6327 11.946 13.618 10.846C13.618 10.6993 13.6327 10.4573 13.662 10.12C13.706 9.78267 13.7793 9.40867 13.882 8.998C13.9993 8.57267 14.1753 8.14 14.41 7.7C14.6447 7.26 14.9527 6.85667 15.334 6.49C15.73 6.12333 16.2213 5.82267 16.808 5.588C17.3947 5.35333 18.0987 5.236 18.92 5.236ZM26.0485 0H27.9845V8.91C27.9698 9.18867 27.8891 9.40867 27.7425 9.57C27.6105 9.73133 27.4711 9.91467 27.3245 10.12H27.9845L32.2525 5.522H34.4525L30.4925 9.724L35.5305 16.5H33.1105L29.2385 11.022L27.9845 12.342V16.5H26.0485V0ZM41.958 5.214C42.8087 5.214 43.5274 5.324 44.114 5.544C44.7154 5.764 45.214 6.05 45.61 6.402C46.006 6.754 46.3214 7.15 46.556 7.59C46.7907 8.03 46.9594 8.46267 47.062 8.888C47.1794 9.31333 47.2527 9.71667 47.282 10.098C47.3114 10.4647 47.326 10.7653 47.326 11C47.326 11.2347 47.3114 11.5427 47.282 11.924C47.2527 12.2907 47.1794 12.6867 47.062 13.112C46.9594 13.5373 46.7907 13.97 46.556 14.41C46.3214 14.85 46.006 15.246 45.61 15.598C45.214 15.95 44.7154 16.236 44.114 16.456C43.5274 16.676 42.8087 16.786 41.958 16.786C41.122 16.786 40.4107 16.676 39.824 16.456C39.2374 16.236 38.7387 15.95 38.328 15.598C37.932 15.246 37.6167 14.85 37.382 14.41C37.162 13.97 36.986 13.5373 36.854 13.112C36.7367 12.6867 36.6634 12.2907 36.634 11.924C36.6047 11.5427 36.59 11.2347 36.59 11C36.59 10.7653 36.6047 10.4647 36.634 10.098C36.6634 9.71667 36.7367 9.31333 36.854 8.888C36.986 8.46267 37.162 8.03 37.382 7.59C37.6167 7.15 37.932 6.754 38.328 6.402C38.7387 6.05 39.2374 5.764 39.824 5.544C40.4107 5.324 41.122 5.214 41.958 5.214ZM41.958 15.158C42.3394 15.158 42.7354 15.0847 43.146 14.938C43.5567 14.7913 43.9307 14.5567 44.268 14.234C44.6054 13.8967 44.884 13.464 45.104 12.936C45.324 12.408 45.434 11.7553 45.434 10.978C45.434 10.2007 45.324 9.548 45.104 9.02C44.884 8.492 44.6054 8.06667 44.268 7.744C43.9307 7.42133 43.5567 7.194 43.146 7.062C42.7354 6.91533 42.3394 6.842 41.958 6.842C41.562 6.842 41.1587 6.91533 40.748 7.062C40.352 7.194 39.9854 7.42133 39.648 7.744C39.3107 8.06667 39.032 8.492 38.812 9.02C38.6067 9.548 38.504 10.2007 38.504 10.978C38.504 11.7553 38.6067 12.408 38.812 12.936C39.032 13.464 39.3107 13.8967 39.648 14.234C39.9854 14.5567 40.352 14.7913 40.748 14.938C41.1587 15.0847 41.562 15.158 41.958 15.158ZM58.5581 8.272C58.4848 8.65333 58.4408 8.96133 58.4261 9.196C58.4115 9.43067 58.4041 9.55533 58.4041 9.57C58.4041 10.1713 58.2941 10.7287 58.0741 11.242C57.8541 11.7553 57.5461 12.2027 57.1501 12.584C56.7541 12.9507 56.2775 13.244 55.7201 13.464C55.1775 13.6693 54.5761 13.772 53.9161 13.772C53.5055 13.772 53.1315 13.7427 52.7941 13.684C52.4568 13.6253 52.1195 13.5153 51.7821 13.354C51.5475 13.4127 51.3421 13.4933 51.1661 13.596C51.0048 13.6987 50.8655 13.8307 50.7481 13.992C50.6308 14.1387 50.5868 14.3367 50.6161 14.586C50.6455 14.7913 50.6968 14.9527 50.7701 15.07C50.8435 15.1727 50.9241 15.2533 51.0121 15.312C51.1001 15.3853 51.2028 15.4367 51.3201 15.466H57.3921C57.4948 15.466 57.7001 15.488 58.0081 15.532C58.3308 15.576 58.6535 15.7007 58.9761 15.906C59.3135 16.1113 59.6141 16.4267 59.8781 16.852C60.1421 17.2773 60.2815 17.8713 60.2961 18.634C60.3108 19.4113 60.1861 20.02 59.9221 20.46C59.6728 20.9147 59.3795 21.252 59.0421 21.472C58.7195 21.692 58.4041 21.8313 58.0961 21.89C57.7881 21.9487 57.5755 21.978 57.4581 21.978H51.2981C51.1368 21.978 50.8875 21.956 50.5501 21.912C50.2275 21.868 49.8975 21.7653 49.5601 21.604C49.2375 21.4427 48.9515 21.2007 48.7021 20.878C48.4675 20.57 48.3501 20.1447 48.3501 19.602C48.3501 19.1473 48.4308 18.7587 48.5921 18.436C48.7681 18.1133 48.9661 17.842 49.1861 17.622C49.4208 17.4167 49.6481 17.2553 49.8681 17.138C50.1028 17.0353 50.2788 16.9693 50.3961 16.94C50.2495 16.9107 50.0808 16.8447 49.8901 16.742C49.7141 16.6393 49.5381 16.5073 49.3621 16.346C49.2008 16.1847 49.0615 15.994 48.9441 15.774C48.8268 15.5393 48.7681 15.2827 48.7681 15.004C48.7681 14.5787 48.8708 14.234 49.0761 13.97C49.2961 13.706 49.5381 13.4933 49.8021 13.332C50.1101 13.156 50.4548 13.024 50.8361 12.936C50.3375 12.5253 49.9781 12.034 49.7581 11.462C49.5381 10.8753 49.4281 10.2447 49.4281 9.57C49.4281 8.954 49.5381 8.38933 49.7581 7.876C49.9928 7.348 50.3081 6.90067 50.7041 6.534C51.1001 6.16733 51.5695 5.88133 52.1121 5.676C52.6695 5.47067 53.2708 5.368 53.9161 5.368C54.8401 5.368 55.6321 5.55133 56.2921 5.918C56.9668 6.27 57.5095 6.81267 57.9201 7.546H58.2721C58.3455 7.16467 58.4555 6.82 58.6021 6.512C58.7195 6.26267 58.8881 6.03534 59.1081 5.83C59.3281 5.61 59.6141 5.5 59.9661 5.5H61.1761V7.392H59.7461C59.5555 7.40667 59.3795 7.44333 59.2181 7.502C59.0861 7.56067 58.9541 7.64867 58.8221 7.766C58.6901 7.88333 58.6021 8.052 58.5581 8.272ZM53.9161 12.232C54.2681 12.232 54.5981 12.166 54.9061 12.034C55.2288 11.8873 55.5075 11.6967 55.7421 11.462C55.9768 11.2127 56.1601 10.9267 56.2921 10.604C56.4388 10.2813 56.5121 9.93667 56.5121 9.57C56.5121 9.20333 56.4388 8.85867 56.2921 8.536C56.1601 8.21334 55.9768 7.93467 55.7421 7.7C55.5075 7.45067 55.2288 7.26 54.9061 7.128C54.5981 6.98133 54.2681 6.908 53.9161 6.908C53.5641 6.908 53.2268 6.98133 52.9041 7.128C52.5961 7.26 52.3248 7.45067 52.0901 7.7C51.8555 7.93467 51.6648 8.21334 51.5181 8.536C51.3861 8.85867 51.3201 9.20333 51.3201 9.57C51.3201 9.93667 51.3861 10.2813 51.5181 10.604C51.6648 10.9267 51.8555 11.2127 52.0901 11.462C52.3248 11.6967 52.5961 11.8873 52.9041 12.034C53.2268 12.166 53.5641 12.232 53.9161 12.232ZM51.5401 17.27C51.2761 17.3287 51.0488 17.424 50.8581 17.556C50.6821 17.6587 50.5208 17.798 50.3741 17.974C50.2421 18.1647 50.1761 18.4067 50.1761 18.7C50.1761 19.0667 50.2568 19.3453 50.4181 19.536C50.5795 19.7267 50.7555 19.866 50.9461 19.954C51.1808 20.0713 51.4375 20.1373 51.7161 20.152C52.6108 20.152 53.4248 20.152 54.1581 20.152C54.4808 20.152 54.7961 20.152 55.1041 20.152C55.4121 20.152 55.6981 20.152 55.9621 20.152C56.2261 20.152 56.4461 20.152 56.6221 20.152C56.8128 20.152 56.9448 20.152 57.0181 20.152C57.1501 20.152 57.2968 20.1227 57.4581 20.064C57.6341 20.02 57.7881 19.9393 57.9201 19.822C58.0668 19.7047 58.1841 19.5433 58.2721 19.338C58.3601 19.1327 58.3968 18.8613 58.3821 18.524C58.3675 18.1867 58.2795 17.93 58.1181 17.754C57.9715 17.578 57.8028 17.4533 57.6121 17.38C57.3921 17.3067 57.1428 17.27 56.8641 17.27H51.5401ZM62.8698 5.5H64.7618V5.83C64.7324 6.25533 64.6371 6.60734 64.4758 6.886C64.3291 7.16467 64.1898 7.50933 64.0578 7.92H64.7178C64.8351 7.392 65.0478 6.93 65.3558 6.534C65.6198 6.182 65.9938 5.86667 66.4778 5.588C66.9764 5.29467 67.6291 5.148 68.4358 5.148C68.8611 5.148 69.2644 5.20667 69.6458 5.324C70.0418 5.42667 70.3938 5.60267 70.7018 5.852C71.0098 6.10133 71.2738 6.424 71.4938 6.82C71.7138 7.216 71.8678 7.7 71.9558 8.272C71.9998 8.60933 72.0218 9.03467 72.0218 9.548C72.0364 10.0467 72.0438 10.5307 72.0438 11V16.5H70.1518V9.812C70.1518 9.592 70.1298 9.31333 70.0858 8.976C70.0564 8.624 69.9611 8.28667 69.7998 7.964C69.6384 7.64133 69.3891 7.37 69.0518 7.15C68.7144 6.91534 68.2378 6.798 67.6218 6.798C66.9618 6.81267 66.4411 6.95933 66.0598 7.238C65.6784 7.51667 65.3924 7.84667 65.2018 8.228C65.0111 8.60933 64.8864 8.998 64.8278 9.394C64.7838 9.79 64.7618 10.098 64.7618 10.318C64.7618 10.4353 64.7618 10.6113 64.7618 10.846C64.7618 11.0807 64.7618 11.352 64.7618 11.66C64.7618 11.968 64.7618 12.3053 64.7618 12.672C64.7618 13.024 64.7618 13.3833 64.7618 13.75C64.7618 14.586 64.7618 15.5027 64.7618 16.5H62.8698V5.5ZM77.0995 16.5H75.1196V5.5H77.0995V16.5ZM77.9796 1.914C77.7302 2.03133 77.5102 2.14867 77.3195 2.266C77.1436 2.38333 76.9822 2.508 76.8355 2.64C76.7036 2.772 76.5862 2.93333 76.4836 3.124C76.3809 3.3 76.2709 3.52 76.1535 3.784H76.0875C75.8529 3.256 75.6109 2.87467 75.3615 2.64C75.1122 2.39067 74.7235 2.156 74.1955 1.936V1.87C74.4595 1.75267 74.6796 1.64267 74.8555 1.54C75.0462 1.42267 75.2076 1.298 75.3395 1.166C75.4862 1.01933 75.6109 0.850667 75.7136 0.66C75.8309 0.469334 75.9482 0.249334 76.0655 0H76.1756C76.3809 0.513334 76.6009 0.894667 76.8355 1.144C77.0849 1.37867 77.4662 1.61333 77.9796 1.848V1.914ZM80.292 5.456H88.41V6.952L82.228 14.674L81.458 15.532L81.92 15.994C82.008 15.9207 82.096 15.8253 82.184 15.708C82.2867 15.5907 82.382 15.4807 82.47 15.378C82.5727 15.2607 82.6754 15.1653 82.778 15.092C82.8807 15.0187 82.9907 14.982 83.108 14.982H88.52V16.544H79.698V14.982L86.54 6.534L86.056 6.094C85.968 6.16733 85.88 6.26267 85.792 6.38C85.704 6.49733 85.6087 6.60734 85.506 6.71C85.418 6.81267 85.3227 6.90067 85.22 6.974C85.1174 7.04733 85.0074 7.084 84.89 7.084H80.292V5.456ZM91.5973 10.01H97.801C97.7863 9.42333 97.669 8.90267 97.449 8.448C97.361 8.24267 97.2363 8.052 97.075 7.876C96.9283 7.68533 96.745 7.51667 96.525 7.37C96.305 7.22333 96.041 7.106 95.733 7.018C95.4397 6.93 95.095 6.886 94.699 6.886C93.9657 6.886 93.3937 7.04733 92.983 7.37C92.5723 7.69267 92.2643 8.052 92.059 8.448C91.8097 8.90267 91.6559 9.42333 91.5973 10.01ZM94.853 5.236C95.777 5.236 96.5397 5.37533 97.141 5.654C97.757 5.93267 98.2483 6.28467 98.615 6.71C98.9817 7.13533 99.253 7.60467 99.429 8.118C99.605 8.61667 99.7223 9.09334 99.781 9.548C99.8397 10.0027 99.8617 10.3987 99.847 10.736C99.8323 11.0733 99.8177 11.2787 99.803 11.352H91.5533C91.5679 11.9093 91.6413 12.43 91.773 12.914C91.9197 13.3833 92.1177 13.794 92.367 14.146C92.631 14.498 92.9537 14.7767 93.335 14.982C93.731 15.1727 94.1857 15.268 94.699 15.268C95.3737 15.268 95.9163 15.136 96.327 14.872C96.7523 14.5933 97.0823 14.3 97.317 13.992C97.5957 13.6107 97.7937 13.1853 97.911 12.716H99.693C99.561 13.4787 99.297 14.1533 98.901 14.74C98.7397 15.004 98.5343 15.2607 98.285 15.51C98.0357 15.7447 97.7423 15.9573 97.405 16.148C97.0677 16.3387 96.6717 16.4927 96.217 16.61C95.777 16.7273 95.271 16.786 94.699 16.786C94.0243 16.786 93.4303 16.698 92.917 16.522C92.4183 16.346 91.9857 16.1187 91.6193 15.84C91.2526 15.5613 90.9446 15.246 90.6953 14.894C90.4459 14.542 90.2479 14.1827 90.1013 13.816C89.7493 12.936 89.5659 11.946 89.5513 10.846C89.5513 10.6993 89.5659 10.4573 89.5953 10.12C89.6393 9.78267 89.7126 9.40867 89.8153 8.998C89.9326 8.57267 90.1086 8.14 90.3433 7.7C90.5779 7.26 90.8859 6.85667 91.2673 6.49C91.6633 6.12333 92.1543 5.82267 92.741 5.588C93.3277 5.35333 94.0317 5.236 94.853 5.236Z"
    fill="currentColor"
  />
</svg>
